<svg fill="#9497B8" width="64px" height="64px" viewBox="-2.1 -2.1 18.20 18.20" role="img" focusable="false" aria-hidden="true" xmlns="http://www.w3.org/2000/svg">
    <g id="SVGRepo_iconCarrier">
        <path style="fill-rule:evenodd"
              d="m 9.4,4.3 0,-0.9 -4.8,0 0,0.9 0,5.4 0,0.9 4.8,0 0,-0.9 0,-5.4 0,0 z m 1.2,0.3 1.2,0 0,4.8 -1.2,0 0,-4.8 0,0 z m -7.2,0 -1.2,0 0,4.8 1.2,0 0,-4.8 0,0 z m 7.2,6 0,1.2 -7.2,0 0,-1.2 -2.4,0 0,-7.2 2.4,0 0,-1.2 7.2,0 0,1.2 2.4,0 0,7.2 -2.4,0 0,0 z"></path>
    </g>
</svg>