<svg class="svg-icon" style="width: 1.005859375em; height: 1em;vertical-align: middle;fill: currentColor;overflow: hidden;" viewBox="0 0 1030 1024" version="1.1" xmlns="http://www.w3.org/2000/svg"><path d="M369.569546 559.22694c-82.459736 0-149.17716-66.717423-149.177159-149.17716s66.717423-149.17716 149.177159-149.177159 149.17716 66.717423 149.17716 149.177159-67.467057 149.17716-149.17716 149.17716z m0-250.377745c-55.472914 0-101.200586 44.978038-101.200586 101.200585s44.978038 101.200586 101.200586 101.200586 101.200586-44.978038 101.200586-101.200586-45.727672-101.200586-101.200586-101.200585z" fill="" /><path d="M583.215227 817.101025c-13.493411 0-23.988287-10.494876-23.988287-23.988287 0-104.948755-85.458272-190.407028-190.407028-190.407028s-190.407028 85.458272-190.407028 190.407028c0 13.493411-10.494876 23.988287-23.988287 23.988287-13.493411 0-23.988287-10.494876-23.988287-23.988287C130.43631 661.926794 236.884334 554.729136 368.819912 554.729136S607.203514 661.926794 607.203514 793.112738c0 13.493411-10.494876 23.988287-23.988287 23.988287z" fill="" /><path d="M683.666179 506.752562c-97.452416 12.743777-179.912152-69.715959-167.168375-167.168375 8.245974-66.717423 62.219619-119.941435 128.187408-128.187408 97.452416-12.743777 179.912152 69.715959 167.168375 167.168375-8.245974 65.967789-62.219619 119.191801-128.187408 128.187408z m-2.248902-247.379209c-68.966325-11.24451-128.187408 47.976574-116.942899 116.942899 6.746706 41.979502 40.480234 75.713031 82.459736 82.459736 68.966325 11.24451 128.187408-47.976574 116.942899-116.942899-7.49634-41.979502-41.229868-75.713031-82.459736-82.459736z" fill="" /><path d="M469.270864 605.704246c43.47877-61.469985 114.693997-101.200586 194.904831-101.200586 131.185944 0 238.383602 106.448023 238.383602 238.383602 0 14.243045-11.994143 25.487555-26.986823 23.988287-11.994143-1.499268-20.989751-11.994143-20.989751-24.737921 0-104.948755-85.458272-189.657394-190.407028-189.657394-66.717423 0-125.938507 34.483163-159.672035 86.957541" fill="" /><path d="M925.79795 1024H107.197657c-55.472914 0-101.200586-45.727672-101.200585-101.200586V104.199122C5.997072 48.726208 51.724744 2.998536 107.197657 2.998536h818.600293c55.472914 0 101.200586 45.727672 101.200586 101.200586v818.600292c0 56.222548-44.978038 101.200586-101.200586 101.200586zM107.197657 77.961933c-14.243045 0-26.237189 11.994143-26.237188 26.237189v818.600292c0 14.243045 11.994143 26.237189 26.237188 26.237189h818.600293c14.243045 0 26.237189-11.994143 26.237189-26.237189V104.199122c0-14.243045-11.994143-26.237189-26.237189-26.237189H107.197657z" fill="" /></svg>